<svg id="svg" width="600" height="600" xmlns="http://www.w3.org/2000/svg" version="1.1" data-v-58d30e64=""><path d="M432.5978992617602,495.92479768177145 L437.5493983496708,498.76553853842415 L441.6448134394741,501.5395025612779 L448.25961130452924,505.7139447830741 L453.33328344007896,508.0319929541329 L456.2732905650628,509.01214523775343 L459.49778635811526,509.36580605477866 L461.4010679074272,509.7750405692095 L466.807225265482,511.6261741188828 L479.34654327642056,515.7607865288555 L487.0521719239914,517.9209822442899 L491.43556634035485,519.361760160351 L501.47033687469957,520.1750932926734 L522.7973876694596,519.8245020644135 L545.1367294303636,514.3765391009474 L559.2171731708077,510.6561521131807 L558.0530385597522,508.2017519813344 L554.1487370230316,500.87961942940456 L549.87704367876,491.64685824235494 L545.1611640398769,481.5844330169275 L542.0789125808515,473.0685753258076 L538.5952353938919,465.05643073142346 L537.9791341679229,456.3773925062087 L538.2723494822567,438.4598743584975 L537.6117423603864,426.8771285665425 L537.0689449630008,421.7851048801276 L535.6403929702647,417.58386159440124 L533.0180357691424,411.97552042414463 L531.2953957974096,407.85174549213843 L529.4261481685244,406.0108093305207 L527.5621365273983,405.337139509953 L525.7033608740167,403.96045162401424 L522.4596664591954,403.0672632648457 L520.3705073445599,402.39357338853733 L518.7316431769432,400.783172980322 L517.5526732672151,398.93907044596926 L516.5936148432374,396.391866214919 L516.3387967724557,394.07423774401104 L516.2899275534,390.8207662413661 L517.4008296222892,387.3193204494637 L517.5867071876273,384.0656265671423 L518.2272430231242,380.1045952931454 L519.9935162261245,374.7359556375741 L520.6392880493659,370.7785977825115 L521.2658612508385,365.8901161005597 L521.2117560440092,362.1722390057803 L520.7178278657084,359.1514872977241 L518.5946348306461,355.68737586199495 L515.1161936314311,355.0305674371157 L513.7068402604491,353.1866227439896 L511.7887234124937,348.091812757717 L510.8200656776462,344.38136252929326 L509.83220932102995,339.5097931453638 L509.56779193934926,336.9559946934278 L507.67934568868077,334.4183260891259 L503.7165756220347,331.90488674997323 L501.3629991257185,328.6736616444723 L499.6944643608149,324.73976542105447 L499.6604304404027,322.6452003176164 L499.1708655852126,320.3248278400242 L498.88201359398954,316.6072586682567 L498.83314437494846,312.4228008928476 L499.01465861716133,308.69480871290943 L499.41608434511,304.27105228916116 L498.4325913116045,299.6293878753895 L497.463933576757,296.61887218144693 L495.7613648914412,290.820357810062 L494.8023064674635,287.80653484012146 L494.2638723932323,282.4612282642411 L492.57613900655997,277.82663907030656 L492.05777621871675,273.4085868465336 L489.03835661274206,272.2853044672229 L486.4945392279915,272.5456154105523 L480.0263490200741,273.092570015011 L477.0078020787623,272.42913394509014 L473.7588716761675,272.00878664158154 L470.03608438165975,270.4286698875221 L466.2879898130195,267.4506886316085 L462.54513123210927,265.4065663837573 L459.02305680158315,261.72947058673526 L456.65988099438255,258.5050611885199 L454.3115404858254,255.97752852947087 L453.34724607410317,253.66369023543302 L452.8489545726625,251.33966655474433 L453.7146378816542,246.90522850805792 L454.37524500352447,244.56787403719864 L454.56112256886263,241.0774429263911 L453.50432570677367,231.31067021017589 L453.4702917863615,228.98409188904043 L452.971127620287,226.42641354775333 L452.48156276511145,224.5729672000416 L450.7981927015644,220.40486540080383 L449.14449323530425,217.87128661542374 L446.7865534158482,216.03997522672216 L445.152925235976,214.4336225486477 L443.4843904710724,211.66272918672985 L441.581108921775,208.66472515278292 L440.5880165773997,204.25370242886493 L438.91948181248154,200.78312629995344 L437.197714505397,194.0575225961693 L437.1235380121798,193.33070410292203 L435.5632136609056,194.0281255787304 L434.77083418049733,194.8411019233863 L433.36148080951534,195.9814875816519 L432.2898486487975,197.21207557171874 L431.25748639623635,197.62868794845417 L430.5968792743515,197.58205988699046 L427.465758596285,196.7356553607242 L424.124325743338,196.3788455199392 L422.09887114638695,195.75138416340997 L421.8396897524799,195.931817726414 L419.3447415867413,195.62163398077246 L416.3994984739984,195.79497207697204 L416.11500980592973,194.3180406078609 L416.4134611080226,193.88418143531453 L412.3285179937229,193.95818091564433 L409.4862493068649,194.7113505388843 L408.9914484639303,194.73466525340336 L408.67903452779865,193.12796437321958 L408.14583644132654,193.1776356456794 L408.17027105085435,193.888236202798 L407.15187143230287,193.90749634608437 L406.8490568070847,193.6743469893736 L407.0009004520107,194.93131958194863 L402.2108443199104,195.52837593117874 L397.46965740686574,196.3555311954915 L395.01397914931295,196.63226173335352 L394.46594576418283,195.63785276298586 L393.8393725627393,195.80814981446747 L393.56535587014514,196.20145378171947 L393.5950264674466,196.94852425107092 L390.8845301390975,197.3620967770039 L391.2021800629591,198.7761367509229 L390.86009552956966,198.84607798502475 L390.6838172751304,198.14260881231166 L390.443834502963,198.65956791679127 L389.54411727357365,198.60280391271226 L389.57815119398583,197.8689234796584 L388.20370440803526,198.00880718933695 L386.6765413125395,198.30276506087466 L383.6387957494444,198.19937308216322 L383.1832648146665,197.92568790759105 L383.3063105269248,196.8917592587095 L382.0636360995268,196.71842309706335 L381.82801665051375,196.49541705926822 L381.6866449810914,195.55878617448616 L381.96066167365643,195.03775603893882 L381.2756199422438,194.7752125698462 L381.42746358716977,194.04839938481018 L380.32179750603973,193.57399122639617 L379.78859941952396,193.91459218739328 L379.7048236154369,191.72093912431592 L378.8487396173441,192.007819826762 L379.1620262180659,190.38688216889204 L378.51625439483905,190.4406097367464 L378.42287927986763,190.86333316076343 L377.15140691980196,190.68998636511242 L375.5221420630405,190.84001752766926 L375.54134068480926,189.68335243740876 L374.27946763562795,189.86379714279246 L374.2593963492254,188.68684565223157 L373.84400798725255,188.6665707399152 L373.8344086763682,188.12320153072142 L373.0952617381554,187.0323990468496 L372.64496679113654,187.19561468711254 L372.50795844483946,186.75564147192563 L372.26884833733493,187.31321088099503 L371.4075283514685,187.9691112080509 L371.5785706181632,188.31986909149055 L372.6502027788956,188.190109095558 L372.74794121699233,188.85309977559155 L371.4171276623383,189.03962845714705 L371.4712328691676,189.7766160343599 L372.12136801553424,190.73661769693354 L370.6980520105426,192.7670866194312 L368.5399523904489,194.57754424416635 L368.59405759724905,195.17460274280893 L367.85578332367004,197.2252531191698 L367.84094802501204,198.0655715364701 L368.11932804071694,198.91601916935906 L367.81127742772514,199.89620415398167 L368.03642490123457,200.51958455520435 L368.72582995578705,200.43646739679752 L369.2939346273197,200.9797685260928 L369.47457620489877,201.49975354803246 L370.18405254582467,201.24330903695227 L371.22165078613034,201.6031420549516 L372.48352383531164,201.09937546088986 L372.39538470808475,199.87897244446503 L373.4033123511326,199.80295016048694 L374.54824834043393,199.3893879057141 L375.02297789696604,201.43690950049495 L375.4095683262858,201.6294959706902 L376.15307858763845,203.56750302429282 L375.2428893827164,204.04389012081447 L374.6067168703885,204.17768352841813 L373.144130957211,205.17099252638582 L373.14936694495555,205.30782512218502 L374.8615349411557,208.37789306498235 L376.15307858763845,207.97450235227734 L376.53443302919914,208.175184371019 L377.15577024289814,207.97146171246277 L378.17853318458947,208.6981719495052 L378.878410214631,210.13535992088146 L378.69689597241813,210.92286515310116 L380.1158486542845,213.12014369625467 L380.42913525503536,213.7728313685693 L379.4901481174602,213.97958246054986 L379.58788655557146,214.28362739430668 L378.9857479636412,214.85725627586726 L380.71275125847023,215.85349777639567 L380.5024390836188,216.3703637541039 L379.8173973521916,216.62068806483876 L380.1306839529425,217.3037560190205 L380.6246121312579,217.19024950670428 L381.15344689459016,219.1948363157062 L382.7731124404527,218.9181692828788 L383.23300669834134,219.8880206282156 L384.35263541351014,221.2652539094961 L384.94517469455604,222.29588606603284 L385.5220060123538,223.78557127565728 L385.1406515707931,224.11593378242105 L383.34994375825045,224.48885699660605 L380.194388470627,225.91973403470547 L378.17853318458947,227.2036548480828 L376.3092855556897,227.86030242518245 L377.0676311156858,229.44110268776058 L377.54759665999154,231.3278964123856 L378.242237702274,233.4517627029636 L378.91768012280227,235.14595904423186 L375.8493912977865,236.28283760035265 L375.7961587556201,237.03264336279244 L375.3362644976878,237.2322528526929 L376.69151266186964,243.194006493497 L376.2560530135088,242.94780253984572 L375.21845477318857,242.89106409284068 L373.0559918299841,242.55367229477633 L371.9110558406828,242.50402595657943 L369.6560904470971,242.7076771028478 L368.2903703073971,243.52430383416868 L367.7816068304528,243.43818346873377 L366.0450042247103,243.93160148249444 L363.6329591984395,243.95085182713592 L362.41471938055474,243.4006957567217 L358.01648966554785,243.93464101085556 L354.5328124785592,243.764427278551 L351.97939578289515,243.33787847754502 L346.8760530500731,243.42095938661805 L340.8581577891746,244.2112376979494 L337.4189864981454,246.12814282602267 L334.8943677351199,248.02880047695726 L333.29477347567445,249.44920403212382 L330.5450072391541,251.3568892511248 L328.4706834231474,252.08631833159598 L324.78105738443264,253.0700259341429 L317.1347699314647,252.71645965768766 L315.05521012769896,252.97986158886488 L312.76010216130817,254.17731840596753 L310.02080790033506,256.54483609676026 L306.6348691514431,261.4792610069635 L302.9897490086587,265.4906416241174 L300.2792526803096,269.48160057974746 L299.40397006044805,272.9852050915142 L297.62809754653426,277.4306227582492 L297.2266718185856,281.39071424164285 L297.26594172675686,283.255244396747 L296.8496807001502,286.5163149750151 L294.5702806970512,288.6430419892167 L294.16885496907344,289.3033307531259 L294.9420358277275,291.61025584371964 L292.66176315999473,292.1976118157654 L292.69143375728163,292.67762082108675 L295.11831408216676,292.62091101819897 L295.3085549706302,293.3439585606866 L293.900074264282,293.63763181801187 L293.9288721969351,295.45129795848334 L288.8307654518576,295.64876378150075 L285.9151929364016,295.65483964670784 L280.76298098450934,296.0487574414692 L276.9572905505338,296.2917907711744 L275.98776015106705,296.27862648118753 L274.3838025684672,296.4852043678584 L271.3006784448371,296.61887218144693 L271.2518092257669,297.8259248342256 L270.82158556516515,297.89275785459904 L270.67934123112354,298.7595577711654 L269.49077201051114,298.9823322193879 L266.02716610991047,299.1392866419519 L264.6911165675119,299.0987822987554 L264.62304872668756,297.0421523952973 L258.0126141847577,297.35910504947606 L256.1486025436461,297.5788447897248 L251.04613247542875,297.74187718368194 L250.9431580495584,295.49484173806195 L250.1167446487525,295.46446235896656 L250.1062726732489,292.59053075323754 L249.07391042068775,292.2543218622268 L248.74666118594178,291.22037106712014 L247.79283874972316,291.21024416923683 L247.55721930071013,290.44667307266354 L244.99856661727245,290.93681753346027 L244.8327603383368,290.22387933000937 L245.63473912962945,290.106406062896 L245.56667128880508,289.0298988262766 L244.82228836281865,289.10281408096125 L244.68528001655068,288.8030510222343 L244.07877810148057,288.8364705975764 L243.32043254148448,284.9951706392567 L242.44951324473368,284.73590534749746 L241.34384716360364,285.03568077947057 L241.17280489689438,283.60161167449405 L240.22858177158923,283.39500677814794 L240.09157342529215,283.0385110363386 L240.92845880163077,282.80152167602864 L240.6736407308199,281.2073989426135 L239.46500022381952,281.5841570878438 L239.5287047415186,281.9649649318417 L238.89776821693522,282.96862961756415 L236.90634754039638,283.9388628538727 L236.64716614647477,283.55502433373476 L236.216942485873,283.72213099727014 L236.45605259337754,284.5657621290193 L235.08160580744152,284.9323798889891 L235.18458023331186,285.48230397123916 L232.3615101681935,286.1395756895072 L230.64410618423426,285.75878398021086 L228.35423420563166,286.125397301199 L226.98415074282093,286.545684374898 L225.0424719499715,286.50213664088733 L223.35910188640992,286.62265241586647 L223.36870119730884,284.74198188557784 L223.1636250102165,284.04520307646453 L222.7674352699978,284.04216478596936 L222.14086206852517,285.10859898988565 L221.42614973984018,285.06505062069846 L221.35284591125674,283.65528836588055 L220.43829338322394,283.50843697095115 L220.61457163766318,282.5412378328001 L220.3501542559825,281.8343155980401 L220.2916857260425,280.9673667922616 L219.9836351130507,280.31107337034337 L218.45647201755492,280.5571839159129 L218.30026504950365,279.8239144691943 L218.64758557065215,279.41372683191 L218.17285601412004,277.116644499587 L217.62482262900448,277.08625945371386 L217.25306749832816,276.43703006702344 L217.20419827925798,275.75943664292936 L211.46031971093907,275.9235179894604 L211.4210498027678,276.3762595466287 L210.76567866865662,276.36309259557675 L210.67753954144428,277.73649738987297 L210.4375567692914,278.1173201071506 L210.4131221597636,279.2739588024233 L209.63034199022513,279.2871253643898 L209.3912318827206,279.5808405199532 L209.34236266366497,280.7810123144409 L209.63034199022513,281.0575055164445 L210.10070822363195,282.4612282642411 L209.86072545149364,284.1890153853892 L208.68611886490544,283.82138209357436 L208.68175554178015,283.0385110363386 L208.09968823623785,283.0385110363386 L208.05518234032206,282.698218443129 L206.24963922912139,282.29817058790286 L204.16571610223036,281.9943356884396 L203.78872498379496,281.3846374968598 L202.13502551754937,281.6074512269661 L202.33137505839113,282.1979051746639 L201.92035001954355,282.9352080519275 L202.3601729910588,283.5053986639141 L201.9491479522112,284.5850045315565 L200.53019527034485,284.8554105276635 L199.86522482532018,284.4817031686034 L198.88696777957375,284.7156502178477 L197.46277910996287,284.0381137318582 L196.99328554117528,284.5819662577087 L196.10753094578104,284.5920938368108 L195.74537512597453,284.3652358157706 L194.54197060674778,284.69539508402886 L193.59251149365446,284.27813840105955 L191.27907757014327,284.44828211621643 L190.90732243946695,284.27206183437374 L190.05036577674036,284.5191752441533 L190.2222807080543,285.99272799722894 L188.9106657751836,286.0524798432634 L187.5999235069321,286.89609102260874 L185.36328407051042,282.28095330198266 L184.52203537106107,280.1976394962476 L183.7444911892817,277.61698357401474 L182.99050895242544,277.78004899858206 L181.11166201264132,277.393147986455 L180.4030583363492,277.5167133963041 L179.09667939120845,276.9333212470956 L178.85669661907014,277.1865300695499 L178.72928758367198,282.7518956266649 L178.6315491455607,283.92569691356766 L179.03733819664922,289.3104197189168 L177.16372724462417,289.32358493975335 L176.8801112411893,290.8902336606334 L176.22910343018884,293.4614279686284 L173.484573181413,295.5981315569079 L172.53075074520893,295.6953454051654 L165.38711811680696,294.07814006321496 L165.21607585011225,294.63813965660665 L164.26225341389363,295.32471709458696 L164.20814820709347,295.968758839339 L163.2691610695183,295.9586324293814 L163.36166351988504,296.7089965898231 L162.613789935378,296.7687419387112 L162.69669307486038,295.84521656671495 L162.06052056250337,295.4047162194729 L162.0212506543321,293.21129897474384 L156.3463125914568,291.74696832220434 L149.3597595957399,288.82634345473343 L149.2812197794119,289.80968416977703 L148.89986533782212,289.74689648743515 L148.94349856914778,288.660258163487 L148.61101334662817,288.53265585929694 L148.54730882894364,289.543342596975 L148.30732605679077,289.543342596975 L148.32216135543422,288.4101169831047 L143.81135790365806,286.59227030162583 L143.41516816343938,286.6692383062036 L143.22405461034214,287.6627278110209 L142.10878921832773,288.31593410690766 L140.9149840099708,288.4496130011721 L139.87738576965057,287.5290478492534 L138.3711666251911,287.629307837582 L136.41377986906446,288.4668292092101 L135.4599574328604,288.55291020432924 L134.87265413957357,287.58981149072497 L131.30607381310256,289.5301774055006 L131.63419571248232,290.7839008248957 L130.9290826946817,291.0532771192229 L131.07132702873787,292.687747568154 L130.7877110252739,292.8710415105015 L131.32527243488585,294.63813965660665 L129.95082564893528,295.07864343001347 L129.84785122306494,296.42140830200515 L130.99802320013987,296.35862483179517 L131.12019624777895,297.17885733917865 L131.60976110293996,297.1484784791537 L132.7049552085664,299.7863412676488 L132.28956684662262,299.3154803411235 L132.08361799486738,299.8025428939218 L131.59928912743635,299.8957021932292 L131.74676944923704,300.34327064286117 L130.15590183604218,300.8364036630628 L129.80858131489367,301.1401804763336 L129.8138173026673,302.329963981716 L129.28498253930593,304.7378393427498 L128.59034149700892,304.857320272371 L128.654046014708,305.43447187625134 L126.72632985586824,306.74165713962066 L125.54735994615476,306.63129127680804 L125.04819578008028,306.1948892697292 L123.66851300638518,305.713933544077 L123.71301890231553,305.3311923637775 L124.48096377318143,305.24411347507703 L123.94776568670932,304.80061747637956 L123.54633995876065,303.56732359463786 L123.31682916209684,303.4002505767676 L122.7338891919353,301.5796426095221 L122.81242900827783,301.399402616782 L121.472016142754,301.3062447385237 L121.1831641515455,300.61970896417915 L120.80180970998481,299.07549229387587 L120.23457770308596,299.1392866419519 L120.20490710579907,298.7889235226867 L118.43339791502513,299.3488963519849 L114.28475028304092,300.8232399799854 L109.20147883660684,301.6201459333388 L106.01188962858578,301.5796426095221 L105.69860302786401,301.6434353369841 L103.22808947163867,302.923331495258 L103.39389575058885,306.3275313834092 L103.64347783364065,308.1247638072382 L103.24728809342196,308.1348889675428 L101.18256358831422,308.9519859751599 L100.57606167325866,308.6522832742121 L99.96955975818855,310.1092753543235 L100.32647959020687,311.5024595982213 L99.8421507227904,314.13993836414375 L96.8672370127606,315.9633517309012 L97.13165439442673,318.49744547220325 L96.54958708889899,322.1521763519959 L96.6324902283668,323.91267566979514 L96.9946460481442,325.13660406380586 L97.43010569653416,328.4337450336061 L99.13267438184994,330.2275378035047 L99.25484742948902,330.8409831517347 L100.13536603710963,338.8629990734298 L100.09609612893837,339.06645118686356 L98.79058984846051,340.48655550105104 L98.99043004780833,341.58072029712275 L98.95639612739615,343.914763034154 L99.5777333411097,346.6890239136919 L99.1719442900212,346.7851753005634 L95.83051143707416,349.21625608775867 L95.75197162074619,349.35592502206055 L91.22633287032659,353.3839730258878 L91.69582643909962,354.2644540927686 L92.90446694611455,356.0172964730482 L93.45773631897464,362.13580837989866 L93.15404902913724,363.4564099820891 L91.04569129273295,364.9530704499448 L90.82490714234882,364.9905119693867 L86.06015828442469,368.86411463189506 L83.16378439072287,373.16861399521076 L83.55037482005719,374.39294367872935 L83.63327795951045,376.179830677509 L82.2727938075841,376.5896161751589 L78.48106600761821,379.6108464204517 L76.75406271277461,380.424316607674 L73.97986186674098,380.14708995786714 L74.6256336899678,381.7780618488141 L72.92306500465202,382.81814649040825 L69.96822258102475,384.79508653324956 L70.21256867630291,385.94238160471286 L72.16995543241501,387.71287255280185 L72.78169333522965,387.6491354290556 L73.73027978368918,387.21612657947117 L75.46775505406549,386.83977155226603 L78.08487626742863,386.7163429785469 L78.92176164375269,388.20253416427295 L80.81544388215116,392.3038607495364 L80.4140181542025,395.67867773311445 L80.97688683797605,396.67815177524244 L81.0205200692726,398.5556789295806 L80.50652060455468,399.0928312696524 L80.65312826172158,400.56973226404443 L81.08422458698624,400.85297102926415 L81.03535536791605,401.6369312375464 L81.49961294893001,401.7299944882179 L81.4018745108333,402.3237764271944 L82.81646386958892,402.650506705686 L82.92816494169529,403.96045162401424 L83.45176371729758,403.9371863443921 L84.70927344336815,404.3175224024235 L85.22850889584515,403.45367190314573 L85.29134074889589,402.64039123339535 L88.0899762044719,403.6205756908821 L90.873776361419,404.8809430760557 L92.85559772704437,405.9875445333382 L93.68201112787938,406.2009735543252 L98.78011787295691,407.96503275189025 L101.84317071019905,409.691635906951 L103.07100983896817,413.2560101028139 L103.9323298248346,413.1265458649832 L105.5860292911093,412.05239073045595 L108.56094300112454,409.13228856679416 L111.06549047773296,407.9448028935876 L113.20875479918323,407.2185482396744 L115.23420939610514,406.9444312386295 L119.22665006003808,406.591415973915 L122.7050912592822,405.23396444742684 L126.47238444970571,403.9473016840384 L128.2779275609064,402.92362406662505 L133.73731746112753,400.4898183227924 L140.00479480503418,399.49948703226255 L142.1332238278701,398.7458574929551 L147.40760882740142,397.3053469246479 L150.1818096734205,396.35544820434734 L151.2185352491215,396.41816810310047 L151.73253471382486,396.8916008937449 L152.2168635812559,399.50555650858223 L152.44201105476532,404.2103001511641 L152.01091472952976,406.51757594540686 L151.3014383885893,408.0216763330791 L149.25678516986954,409.1019441359931 L148.33699665407767,410.69602563089575 L146.82554152184457,410.76581668282233 L141.6392956495256,411.2058026153645 L134.91192404774483,425.10632741059453 L136.29160682143993,425.7191839383995 L134.91192404774483,429.9736789789058 L132.51471432010294,436.67916847241577 L134.33422006531327,438.4598743584975 L134.9066880599712,438.91288244189855 L137.8327325509308,441.65414381973096 L137.64685498559265,442.51766082039467 L138.10674924351042,443.03435181693203 L139.09024227700138,443.6673198904391 L147.46607735732687,449.5326989324676 L152.070255924089,454.45748853759505 L154.34005661630363,456.5745369359174 L157.39263747804216,456.9577037047857 L161.31177431339165,461.3089183587035 L163.6452795233199,463.5966666710301 L165.89151827064052,459.05144632901647 L168.1857535723684,455.3704332971429 L168.36203182683676,450.6832875974251 L170.06983649991162,447.0818398365773 L172.03158657916356,442.17690618246706 L177.14889194599527,428.8804924639044 L180.86295259423787,420.0111784684814 L183.63191745252698,412.7897357647562 L185.18264249293134,408.61137454586424 L185.53956232494966,407.88512478751363 L186.48902143804298,406.80484369147234 L188.17675482472987,405.24711421629036 L189.40982994125807,404.33370688308423 L192.17443147639278,402.66972610020093 L195.46699511029874,401.1635211714056 L200.79984863977006,399.40945642302177 L204.21458532130055,398.4919487972511 L208.8719964302436,397.6189430071281 L213.1777236949274,396.6852330330112 L218.10478817329567,395.6817125886337 L226.3139443100372,394.1946222282277 L236.66723743289185,392.2441732011612 L237.81130075755937,392.0742152388666 L243.77072748850333,391.79702126857956 L247.78236677421955,391.96394473797045 L298.1316250357195,393.2446936145752 L316.74817950213037,392.5871231995152 L323.35774137945555,392.4110959153659 L336.4991979823244,392.1541359837065 L343.2361688950332,392.09748331048104 L352.6496022156498,391.68776211779914 L355.75105229644396,391.6442607556419 L363.46191693175933,392.52743582219773 L366.86705430240545,393.21434430709996 L377.67500569537515,395.54817885826196 L380.8837935251504,396.4920156748303 L384.09345401958853,397.1849662287568 L387.5526965970348,398.04280193763043 L390.25795693762484,398.81869173948144 L392.54346559310216,399.2526613460177 L397.0979022761894,400.4594712395847 L400.307562770613,401.233318951854 L407.79764325554424,403.40006032365636 L409.01151975031826,403.9968668332549 L410.7725569655595,405.26734462649256 L411.8686237358197,406.2242383012672 L412.9742898169643,407.48457249936473 L413.82601049194636,408.64475358483105 L414.9316765730764,410.4684457715666 L415.61671830448904,411.90269586834984 L416.5557054420642,414.4737747958643 L416.82972213462926,415.52362966380315 L417.411789440157,437.1422966521277 L417.059232931264,450.9633497745526 L417.8524850762915,466.3271358100392 L418.7129323975096,472.5389001778203 L420.65548385497823,478.75735049395007 L422.91132191319775,484.59235218213144 L425.6802867714723,488.8230947327975 L430.2547947409621,494.05113750067176 L431.5559376983292,495.23152732980816 L432.5978992617602,495.92479768177145" class="ani" stroke="#000" stroke-width="2" fill="none" data-v-58d30e64=""></path></svg>